HIERARCHY
ROOT hip
{
  OFFSET 0 90.174 2.4664
  CHANNELS 6 Xposition Yposition Zposition Zrotation Xrotation Yrotation
  JOINT abdomen
  {
    OFFSET 0 -1.186 -1.5018
    CHANNELS 6 Xposition Yposition Zposition Zrotation Xrotation Yrotation
    JOINT abdomen2
    {
      OFFSET 0 9.964 0.2134
      CHANNELS 6 Xposition Yposition Zposition Zrotation Xrotation Yrotation
      JOINT chest
      {
        OFFSET 0 13.134 -3.2573
        CHANNELS 6 Xposition Yposition Zposition Zrotation Xrotation Yrotation
        JOINT neck
        {
          OFFSET 0 20.686 -1.6905
          CHANNELS 6 Xposition Yposition Zposition Zrotation Xrotation Yrotation
          JOINT head
          {
            OFFSET 0 7.238 -0.1237
            CHANNELS 6 Xposition Yposition Zposition Zrotation Xrotation Yrotation
            End Site
            {
              OFFSET 0 0 0
            }
          }
        }
        JOINT lCollar
        {
          OFFSET 1.7069 20.075 5.0056
          CHANNELS 6 Xposition Yposition Zposition Zrotation Xrotation Yrotation
          JOINT lShldr
          {
            OFFSET 13.6458 -0.047 -4.849
            CHANNELS 6 Xposition Yposition Zposition Zrotation Xrotation Yrotation
            JOINT lForeArm
            {
              OFFSET 28.3255 -0.9759 2.2888
              CHANNELS 6 Xposition Yposition Zposition Zrotation Xrotation Yrotation
              JOINT lHand
              {
                OFFSET 22.1583 -0.53 10.8316
                CHANNELS 6 Xposition Yposition Zposition Zrotation Xrotation Yrotation
                JOINT lThumb1
                {
                  OFFSET 0.786 0.112 2.5817
                  CHANNELS 6 Xposition Yposition Zposition Zrotation Xrotation Yrotation
                  JOINT lThumb2
                  {
                    OFFSET 0.3601 -0.878 4.2331
                    CHANNELS 6 Xposition Yposition Zposition Zrotation Xrotation Yrotation
                    JOINT lThumb2_End
                    {
                      OFFSET 1.8127 -1.216 2.2227
                      CHANNELS 6 Xposition Yposition Zposition Zrotation Xrotation Yrotation
                      End Site
                      {
                        OFFSET 0.0181 -0.0122 0.0222
                      }
                    }
                  }
                }
                JOINT lCarpal1
                {
                  OFFSET 0.9571 1.114 1.7695
                  CHANNELS 6 Xposition Yposition Zposition Zrotation Xrotation Yrotation
                  JOINT lIndex1
                  {
                    OFFSET 4.1246 0.487 4.1451
                    CHANNELS 6 Xposition Yposition Zposition Zrotation Xrotation Yrotation
                    JOINT lIndex2
                    {
                      OFFSET 3.4052 -1.454 2.7682
                      CHANNELS 6 Xposition Yposition Zposition Zrotation Xrotation Yrotation
                      JOINT lIndex2_End
                      {
                        OFFSET 1.4531 -1.795 1.2713
                        CHANNELS 6 Xposition Yposition Zposition Zrotation Xrotation Yrotation
                        End Site
                        {
                          OFFSET 0.0145 -0.0179 0.0127
                        }
                      }
                    }
                  }
                  JOINT lMid1
                  {
                    OFFSET 5.6954 0.21 2.1184
                    CHANNELS 6 Xposition Yposition Zposition Zrotation Xrotation Yrotation
                    JOINT lMid2
                    {
                      OFFSET 3.9766 -1.54 2.3863
                      CHANNELS 6 Xposition Yposition Zposition Zrotation Xrotation Yrotation
                      JOINT lMid2_End
                      {
                        OFFSET 1.4042 -1.926 1.125
                        CHANNELS 6 Xposition Yposition Zposition Zrotation Xrotation Yrotation
                        End Site
                        {
                          OFFSET 0.014 -0.0193 0.0113
                        }
                      }
                    }
                  }
                }
                JOINT lCarpal2
                {
                  OFFSET 2.0956 0.66 -0.3894
                  CHANNELS 6 Xposition Yposition Zposition Zrotation Xrotation Yrotation
                  JOINT lRing1
                  {
                    OFFSET 5.0395 -0.09 2.4971
                    CHANNELS 6 Xposition Yposition Zposition Zrotation Xrotation Yrotation
                    JOINT lRing2
                    {
                      OFFSET 3.7921 -1.552 1.4806
                      CHANNELS 6 Xposition Yposition Zposition Zrotation Xrotation Yrotation
                      JOINT lRing2_End
                      {
                        OFFSET 1.4655 -1.808 0.9609
                        CHANNELS 6 Xposition Yposition Zposition Zrotation Xrotation Yrotation
                        End Site
                        {
                          OFFSET 0.0147 -0.0181 0.0096
                        }
                      }
                    }
                  }
                  JOINT lPinky1
                  {
                    OFFSET 4.9141 -1.269 0.3591
                    CHANNELS 6 Xposition Yposition Zposition Zrotation Xrotation Yrotation
                    JOINT lPinky2
                    {
                      OFFSET 3.1477 -1.685 0.8462
                      CHANNELS 6 Xposition Yposition Zposition Zrotation Xrotation Yrotation
                      JOINT lPinky2_End
                      {
                        OFFSET 0.8055 -1.585 0.7955
                        CHANNELS 6 Xposition Yposition Zposition Zrotation Xrotation Yrotation
                        End Site
                        {
                          OFFSET 0.0081 -0.0158 0.008
                        }
                      }
                    }
                  }
                }
              }
            }
          }
        }
        JOINT rCollar
        {
          OFFSET -1.7069 20.075 5.0056
          CHANNELS 6 Xposition Yposition Zposition Zrotation Xrotation Yrotation
          JOINT rShldr
          {
            OFFSET -13.6458 -0.047 -4.849
            CHANNELS 6 Xposition Yposition Zposition Zrotation Xrotation Yrotation
            JOINT rForeArm
            {
              OFFSET -28.3255 -0.9759 2.2888
              CHANNELS 6 Xposition Yposition Zposition Zrotation Xrotation Yrotation
              JOINT rHand
              {
                OFFSET -22.1583 -0.53 10.8316
                CHANNELS 6 Xposition Yposition Zposition Zrotation Xrotation Yrotation
                JOINT rThumb1
                {
                  OFFSET -0.786 0.112 2.5817
                  CHANNELS 6 Xposition Yposition Zposition Zrotation Xrotation Yrotation
                  JOINT rThumb2
                  {
                    OFFSET -0.3601 -0.878 4.2331
                    CHANNELS 6 Xposition Yposition Zposition Zrotation Xrotation Yrotation
                    JOINT rThumb2_End
                    {
                      OFFSET -1.8127 -1.216 2.2227
                      CHANNELS 6 Xposition Yposition Zposition Zrotation Xrotation Yrotation
                      End Site
                      {
                        OFFSET -0.0181 -0.0122 0.0222
                      }
                    }
                  }
                }
                JOINT rCarpal1
                {
                  OFFSET -0.9571 1.114 1.7695
                  CHANNELS 6 Xposition Yposition Zposition Zrotation Xrotation Yrotation
                  JOINT rIndex1
                  {
                    OFFSET -4.1246 0.487 4.1451
                    CHANNELS 6 Xposition Yposition Zposition Zrotation Xrotation Yrotation
                    JOINT rIndex2
                    {
                      OFFSET -3.4052 -1.454 2.7682
                      CHANNELS 6 Xposition Yposition Zposition Zrotation Xrotation Yrotation
                      JOINT rIndex2_End
                      {
                        OFFSET -1.4531 -1.795 1.2713
                        CHANNELS 6 Xposition Yposition Zposition Zrotation Xrotation Yrotation
                        End Site
                        {
                          OFFSET -0.0145 -0.018 0.0127
                        }
                      }
                    }
                  }
                  JOINT rMid1
                  {
                    OFFSET -5.6954 0.21 2.1184
                    CHANNELS 6 Xposition Yposition Zposition Zrotation Xrotation Yrotation
                    JOINT rMid2
                    {
                      OFFSET -3.9766 -1.54 2.3863
                      CHANNELS 6 Xposition Yposition Zposition Zrotation Xrotation Yrotation
                      JOINT rMid2_End
                      {
                        OFFSET -1.4042 -1.926 1.125
                        CHANNELS 6 Xposition Yposition Zposition Zrotation Xrotation Yrotation
                        End Site
                        {
                          OFFSET -0.014 -0.0193 0.0113
                        }
                      }
                    }
                  }
                }
                JOINT rCarpal2
                {
                  OFFSET -2.0956 0.66 -0.3894
                  CHANNELS 6 Xposition Yposition Zposition Zrotation Xrotation Yrotation
                  JOINT rRing1
                  {
                    OFFSET -5.0395 -0.09 2.4971
                    CHANNELS 6 Xposition Yposition Zposition Zrotation Xrotation Yrotation
                    JOINT rRing2
                    {
                      OFFSET -3.7921 -1.552 1.4806
                      CHANNELS 6 Xposition Yposition Zposition Zrotation Xrotation Yrotation
                      JOINT rRing2_End
                      {
                        OFFSET -1.4655 -1.808 0.9609
                        CHANNELS 6 Xposition Yposition Zposition Zrotation Xrotation Yrotation
                        End Site
                        {
                          OFFSET -0.0147 -0.0181 0.0096
                        }
                      }
                    }
                  }
                  JOINT rPinky1
                  {
                    OFFSET -4.9141 -1.269 0.3592
                    CHANNELS 6 Xposition Yposition Zposition Zrotation Xrotation Yrotation
                    JOINT rPinky2
                    {
                      OFFSET -3.1477 -1.685 0.8462
                      CHANNELS 6 Xposition Yposition Zposition Zrotation Xrotation Yrotation
                      JOINT rPinky2_End
                      {
                        OFFSET -0.8055 -1.585 0.7955
                        CHANNELS 6 Xposition Yposition Zposition Zrotation Xrotation Yrotation
                        End Site
                        {
                          OFFSET -0.0081 -0.0158 0.008
                        }
                      }
                    }
                  }
                }
              }
            }
          }
        }
      }
    }
  }
  JOINT lThigh
  {
    OFFSET 8.367 -8.2066 0.5982
    CHANNELS 6 Xposition Yposition Zposition Zrotation Xrotation Yrotation
    JOINT lShin
    {
      OFFSET 2.1923 -43.463 -0.4932
      CHANNELS 6 Xposition Yposition Zposition Zrotation Xrotation Yrotation
      JOINT lFoot
      {
        OFFSET 0.7333 -45.8593 -2.6451
        CHANNELS 6 Xposition Yposition Zposition Zrotation Xrotation Yrotation
        End Site
        {
          OFFSET 2.6618 -4.2699 12.3931
        }
      }
    }
  }
  JOINT rThigh
  {
    OFFSET -8.367 -8.2066 0.5982
    CHANNELS 6 Xposition Yposition Zposition Zrotation Xrotation Yrotation
    JOINT rShin
    {
      OFFSET -2.1923 -43.463 -0.4931
      CHANNELS 6 Xposition Yposition Zposition Zrotation Xrotation Yrotation
      JOINT rFoot
      {
        OFFSET -0.7333 -45.8593 -2.6451
        CHANNELS 6 Xposition Yposition Zposition Zrotation Xrotation Yrotation
        End Site
        {
          OFFSET -2.6618 -4.2699 12.3931
        }
      }
    }
  }
}
MOTION
Frames:	4
Frame Time:	0.0333333
0 90.174 2.4664 0 0 -0 0 -1.186 -1.5018 0 0 -0 0 9.964 0.2134 0 0 -0 0 13.134 -3.2573 0 0 -0 0 20.686 -1.6905 0 0 -0 0 7.238 -0.1237 0 0 -0 1.7069 20.075 5.0056 0 0 -0 13.6458 -0.047 -4.849 1.66051 0.0835086 5.75766 28.3255 -0.9759 2.2888 -0.0175111 0.895433 15.7816 22.1583 -0.53 10.8316 7.95139e-016 -1.98785e-016 -0 0.786 0.112 2.5817 5.46658e-016 -3.97569e-016 -0 0.3601 -0.878 4.2331 5.96354e-016 0 -0 1.8127 -1.216 2.2227 3.97569e-016 1.98785e-016 9.54166e-015 0.9571 1.114 1.7695 1.49089e-016 -3.97569e-016 -0 4.1246 0.487 4.1451 6.4605e-016 0 3.18055e-015 3.4052 -1.454 2.7682 5.96354e-016 0 3.18055e-015 1.4531 -1.795 1.2713 8.94531e-016 -1.98785e-016 6.36111e-015 5.6954 0.21 2.1184 6.4605e-016 0 3.18055e-015 3.9766 -1.54 2.3863 5.96354e-016 0 3.18055e-015 1.4042 -1.926 1.125 8.94531e-016 -1.98785e-016 6.36111e-015 2.0956 0.66 -0.3894 1.49089e-016 -3.97569e-016 -0 5.0395 -0.09 2.4971 6.4605e-016 0 3.18055e-015 3.7921 -1.552 1.4806 5.96354e-016 0 3.18055e-015 1.4655 -1.808 0.9609 8.94531e-016 -1.98785e-016 6.36111e-015 4.9141 -1.269 0.3591 6.4605e-016 0 3.18055e-015 3.1477 -1.685 0.8462 5.96354e-016 0 3.18055e-015 0.8055 -1.585 0.7955 8.94531e-016 -1.98785e-016 6.36111e-015 -1.7069 20.075 5.0056 0 0 -0 -13.6458 -0.047 -4.849 -1.4496 0.0636048 -5.0245 -28.3255 -0.9759 2.2888 -1.74811 1.20616 -16.8394 -22.1583 -0.53 10.8316 -1.19271e-015 1.98785e-016 -3.18055e-015 -0.786 0.112 2.5817 -3.97569e-016 1.98785e-016 -3.18055e-015 -0.3601 -0.878 4.2331 -2.98177e-016 1.98785e-016 -3.18055e-015 -1.8127 -1.216 2.2227 -2.98177e-016 3.97569e-016 -0 -0.9571 1.114 1.7695 4.96962e-016 0 -6.36111e-015 -4.1246 0.487 4.1451 -9.93923e-017 3.97569e-016 -0 -3.4052 -1.454 2.7682 -8.94531e-016 5.96354e-016 -0 -1.4531 -1.795 1.2713 -3.97569e-016 3.97569e-016 -0 -5.6954 0.21 2.1184 -9.93923e-017 3.97569e-016 -0 -3.9766 -1.54 2.3863 -8.94531e-016 5.96354e-016 -0 -1.4042 -1.926 1.125 -3.97569e-016 3.97569e-016 -0 -2.0956 0.66 -0.3894 4.96962e-016 0 -6.36111e-015 -5.0395 -0.09 2.4971 -9.93923e-017 3.97569e-016 -0 -3.7921 -1.552 1.4806 -8.94531e-016 5.96354e-016 -0 -1.4655 -1.808 0.9609 -3.97569e-016 3.97569e-016 -0 -4.9141 -1.269 0.3592 -9.93923e-017 3.97569e-016 -0 -3.1477 -1.685 0.8462 -8.94531e-016 5.96354e-016 -0 -0.8055 -1.585 0.7955 -3.97569e-016 3.97569e-016 -0 8.367 -8.2066 0.5982 -4.66115 -1.03232 0.120763 2.1923 -43.463 -0.4932 0.00990601 1.55097 0.177175 0.7333 -45.8593 -2.6451 4.65196 -0.54114 -0.255042 -8.367 -8.2066 0.5982 4.66115 -1.03222 -0.120763 -2.1923 -43.463 -0.4931 -0.00990459 1.5509 -0.177176 -0.7333 -45.8593 -2.6451 -4.65196 -0.541171 0.255041 
0.00945597 28.5648 -9.79313 -180 -89.9981 -180 0 -1.186 -1.5018 0 0 -0 0 9.964 0.2134 0 0 -0 0 13.134 -3.2573 0 0 -0 0 20.686 -1.6905 1.99868 -0.0821348 0.00286651 -2.22045e-016 7.238 -0.1237 19.9982 -9.9678e-006 8.43327e-007 1.7069 20.075 5.0056 -0 -0.0821817 -0 13.6458 -0.047 -4.849 -71.3423 0.0834983 5.75765 28.3255 -0.9759 2.2888 -0.601326 -1.41206 -65.1954 22.1583 -0.53 10.8316 -36.9182 13.5651 3.85809 0.786 0.112 2.5817 -2.82941e-006 3.43801e-007 -2.94308e-006 0.3601 -0.878 4.2331 1.10463e-008 -7.87157e-007 -3.21477e-006 1.8127 -1.216 2.2227 1.17605e-007 9.09699e-007 3.06844e-007 0.9571 1.114 1.7695 2.38542e-015 3.18055e-015 3.18055e-015 4.1246 0.487 4.1451 -2.82941e-006 3.43801e-007 -2.94308e-006 3.4052 -1.454 2.7682 1.10463e-008 -7.87157e-007 -3.21477e-006 1.4531 -1.795 1.2713 1.17605e-007 9.09699e-007 3.06844e-007 5.6954 0.21 2.1184 -2.82941e-006 3.43801e-007 -2.94308e-006 3.9766 -1.54 2.3863 1.10463e-008 -7.87157e-007 -3.21477e-006 1.4042 -1.926 1.125 1.17605e-007 9.09699e-007 3.06844e-007 2.0956 0.66 -0.3894 2.38542e-015 3.18055e-015 3.18055e-015 5.0395 -0.09 2.4971 -2.82941e-006 3.43801e-007 -2.94308e-006 3.7921 -1.552 1.4806 1.10463e-008 -7.87157e-007 -3.21477e-006 1.4655 -1.808 0.9609 1.17605e-007 9.09699e-007 3.06844e-007 4.9141 -1.269 0.3591 -2.82941e-006 3.43801e-007 -2.94308e-006 3.1477 -1.685 0.8462 1.10463e-008 -7.87157e-007 -3.21477e-006 0.8055 -1.585 0.7955 1.17605e-007 9.09699e-007 3.06844e-007 -1.7069 20.075 5.0056 -0 -0.0821817 -0 -13.6458 -0.047 -4.849 71.5489 0.0636044 -5.0245 -28.3255 -0.9759 2.2888 -0.129075 -2.94291 65.0813 -22.1583 -0.53 10.8316 33.8931 12.8959 -3.02319 -0.786 0.112 2.5817 2.80398e-007 -6.95014e-007 -4.04586e-007 -0.3601 -0.878 4.2331 -7.95139e-016 0 -6.36111e-015 -1.8127 -1.216 2.2227 5.19479e-007 -2.31336e-006 2.37547e-006 -0.9571 1.114 1.7695 5.56597e-015 -3.18055e-015 3.18055e-015 -4.1246 0.487 4.1451 2.80398e-007 -6.95014e-007 -4.04586e-007 -3.4052 -1.454 2.7682 -7.95139e-016 -1.59028e-015 -3.18055e-015 -1.4531 -1.795 1.2713 5.19479e-007 -2.31336e-006 2.37547e-006 -5.6954 0.21 2.1184 2.80398e-007 -6.95014e-007 -4.04586e-007 -3.9766 -1.54 2.3863 -7.95139e-016 -1.59028e-015 -3.18055e-015 -1.4042 -1.926 1.125 5.19479e-007 -2.31336e-006 2.37547e-006 -2.0956 0.66 -0.3894 5.56597e-015 -3.18055e-015 3.18055e-015 -5.0395 -0.09 2.4971 2.80398e-007 -6.95014e-007 -4.04586e-007 -3.7921 -1.552 1.4806 -7.95139e-016 -1.59028e-015 -3.18055e-015 -1.4655 -1.808 0.9609 5.19479e-007 -2.31336e-006 2.37547e-006 -4.9141 -1.269 0.3592 2.80398e-007 -6.95014e-007 -4.04586e-007 -3.1477 -1.685 0.8462 -7.95139e-016 -1.59028e-015 -3.18055e-015 -0.8055 -1.585 0.7955 5.19479e-007 -2.31336e-006 2.37547e-006 8.367 -8.2066 0.5982 -2.79041 -1.97765 0.0960935 2.1923 -43.463 -0.4932 0.0137117 3.46733 0.46643 0.7333 -45.8593 -2.6451 4.76807 -1.53137 -0.328608 -8.367 -8.2066 0.5982 2.04999 -38.067 -2.84379 -2.1923 -43.463 -0.4931 -0.93413 77.2099 -2.46264 -0.7333 -45.8593 -2.6451 -4.73894 40.5729 -0.272489 
0.00945597 28.5648 -9.79313 -180 -89.9981 -180 0 -1.186 -1.5018 0 0 -0 0 9.964 0.2134 0 0 -0 0 13.134 -3.2573 0 0 -0 0 20.686 -1.6905 1.99868 -0.0821348 0.00286651 -2.22045e-016 7.238 -0.1237 19.1806 4.95775e-007 -2.51616e-006 1.7069 20.075 5.0056 -0 -0.0821817 -0 13.6458 -0.047 -4.849 -71.3423 0.0835055 5.75766 28.3255 -0.9759 2.2888 -0.617158 -1.42314 -65.7991 22.1583 -0.53 10.8316 -36.9182 13.5651 3.85809 0.786 0.112 2.5817 2.9199e-006 -2.18484e-006 -1.31188e-006 0.3601 -0.878 4.2331 -3.18055e-015 2.54444e-014 3.18055e-015 1.8127 -1.216 2.2227 -3.31446e-007 -4.37558e-007 -1.78783e-006 0.9571 1.114 1.7695 4.77083e-015 -6.36111e-015 6.36111e-015 4.1246 0.487 4.1451 2.9199e-006 -2.18484e-006 -1.31188e-006 3.4052 -1.454 2.7682 -1.23589e-030 2.22639e-014 3.18055e-015 1.4531 -1.795 1.2713 -3.31446e-007 -4.37558e-007 -1.78783e-006 5.6954 0.21 2.1184 2.9199e-006 -2.18484e-006 -1.31188e-006 3.9766 -1.54 2.3863 -1.23589e-030 2.22639e-014 3.18055e-015 1.4042 -1.926 1.125 -3.31446e-007 -4.37558e-007 -1.78783e-006 2.0956 0.66 -0.3894 4.77083e-015 -6.36111e-015 6.36111e-015 5.0395 -0.09 2.4971 2.9199e-006 -2.18484e-006 -1.31188e-006 3.7921 -1.552 1.4806 -1.23589e-030 2.22639e-014 3.18055e-015 1.4655 -1.808 0.9609 -3.31446e-007 -4.37558e-007 -1.78783e-006 4.9141 -1.269 0.3591 2.9199e-006 -2.18484e-006 -1.31188e-006 3.1477 -1.685 0.8462 -1.23589e-030 2.22639e-014 3.18055e-015 0.8055 -1.585 0.7955 -3.31446e-007 -4.37558e-007 -1.78783e-006 -1.7069 20.075 5.0056 -0 -0.0821817 -0 -13.6458 -0.047 -4.849 71.5489 0.0635988 -5.0245 -28.3255 -0.9759 2.2888 -0.10838 -2.95369 65.4749 -22.1583 -0.53 10.8316 33.8932 12.8959 -3.02319 -0.786 0.112 2.5817 2.38542e-015 -1.59028e-015 1.27222e-014 -0.3601 -0.878 4.2331 2.7913e-007 -6.95612e-007 -4.04806e-007 -1.8127 -1.216 2.2227 -6.36111e-015 3.18055e-015 -0 -0.9571 1.114 1.7695 4.77083e-015 -1.59028e-015 -3.18055e-015 -4.1246 0.487 4.1451 1.59028e-015 -6.36111e-015 2.22639e-014 -3.4052 -1.454 2.7682 2.7913e-007 -6.95612e-007 -4.04806e-007 -1.4531 -1.795 1.2713 -1.59028e-015 3.18055e-015 -3.18055e-015 -5.6954 0.21 2.1184 1.59028e-015 -6.36111e-015 2.22639e-014 -3.9766 -1.54 2.3863 2.7913e-007 -6.95612e-007 -4.04806e-007 -1.4042 -1.926 1.125 -1.59028e-015 3.18055e-015 -3.18055e-015 -2.0956 0.66 -0.3894 4.77083e-015 -1.59028e-015 -3.18055e-015 -5.0395 -0.09 2.4971 1.59028e-015 -6.36111e-015 2.22639e-014 -3.7921 -1.552 1.4806 2.7913e-007 -6.95612e-007 -4.04806e-007 -1.4655 -1.808 0.9609 -1.59028e-015 3.18055e-015 -3.18055e-015 -4.9141 -1.269 0.3592 1.59028e-015 -6.36111e-015 2.22639e-014 -3.1477 -1.685 0.8462 2.7913e-007 -6.95612e-007 -4.04806e-007 -0.8055 -1.585 0.7955 -1.59028e-015 3.18055e-015 -3.18055e-015 8.367 -8.2066 0.5982 -2.79041 -1.97765 0.0960935 2.1923 -43.463 -0.4932 0.0137117 3.46733 0.46643 0.7333 -45.8593 -2.6451 4.76807 -1.53137 -0.328608 -8.367 -8.2066 0.5982 2.04999 -38.067 -2.84379 -2.1923 -43.463 -0.4931 -0.93413 77.2099 -2.46264 -0.7333 -45.8593 -2.6451 -4.73894 40.5729 -0.272489 
0.00945597 28.5648 -9.79313 -180 -89.9981 -180 0 -1.186 -1.5018 0 0 -0 0 9.964 0.2134 0 0 -0 0 13.134 -3.2573 0 0 -0 0 20.686 -1.6905 1.99868 -0.0821348 0.00286651 -2.22045e-016 7.238 -0.1237 18.3611 2.85499e-006 -1.40222e-006 1.7069 20.075 5.0056 -0 -0.0821817 -0 13.6458 -0.047 -4.849 -71.3423 0.0835055 5.75766 28.3255 -0.9759 2.2888 -0.633098 -1.43405 -66.4034 22.1583 -0.53 10.8316 -36.9183 13.5651 3.85808 0.786 0.112 2.5817 -2.79163e-007 -7.11911e-007 3.74959e-007 0.3601 -0.878 4.2331 -3.97569e-015 4.77083e-015 -0 1.8127 -1.216 2.2227 -9.54166e-015 1.59028e-015 -3.18055e-015 0.9571 1.114 1.7695 4.77083e-015 0 -6.36111e-015 4.1246 0.487 4.1451 -2.79163e-007 -7.11911e-007 3.74959e-007 3.4052 -1.454 2.7682 -7.15625e-015 -3.18055e-015 -0 1.4531 -1.795 1.2713 -7.95139e-016 -3.18055e-015 6.36111e-015 5.6954 0.21 2.1184 -2.79163e-007 -7.11911e-007 3.74959e-007 3.9766 -1.54 2.3863 -7.15625e-015 -3.18055e-015 -0 1.4042 -1.926 1.125 -7.95139e-016 -3.18055e-015 6.36111e-015 2.0956 0.66 -0.3894 4.77083e-015 0 -6.36111e-015 5.0395 -0.09 2.4971 -2.79163e-007 -7.11911e-007 3.74959e-007 3.7921 -1.552 1.4806 -7.15625e-015 -3.18055e-015 -0 1.4655 -1.808 0.9609 -7.95139e-016 -3.18055e-015 6.36111e-015 4.9141 -1.269 0.3591 -2.79163e-007 -7.11911e-007 3.74959e-007 3.1477 -1.685 0.8462 -7.15625e-015 -3.18055e-015 -0 0.8055 -1.585 0.7955 -7.95139e-016 -3.18055e-015 6.36111e-015 -1.7069 20.075 5.0056 -0 -0.0821817 -0 -13.6458 -0.047 -4.849 71.5489 0.0636089 -5.0245 -28.3255 -0.9759 2.2888 -0.0876103 -2.9643 65.8687 -22.1583 -0.53 10.8316 33.8931 12.8959 -3.02319 -0.786 0.112 2.5817 -7.51459e-007 -1.19539e-006 1.09177e-006 -0.3601 -0.878 4.2331 1.52574e-006 -1.8171e-006 8.82987e-007 -1.8127 -1.216 2.2227 -7.51459e-007 -1.19539e-006 1.09177e-006 -0.9571 1.114 1.7695 3.18055e-015 1.59028e-015 -1.27222e-014 -4.1246 0.487 4.1451 -7.51459e-007 -1.19539e-006 1.09177e-006 -3.4052 -1.454 2.7682 1.52574e-006 -1.8171e-006 8.82987e-007 -1.4531 -1.795 1.2713 -7.51459e-007 -1.19539e-006 1.09177e-006 -5.6954 0.21 2.1184 -7.51459e-007 -1.19539e-006 1.09177e-006 -3.9766 -1.54 2.3863 1.52574e-006 -1.8171e-006 8.82987e-007 -1.4042 -1.926 1.125 -7.51459e-007 -1.19539e-006 1.09177e-006 -2.0956 0.66 -0.3894 3.18055e-015 1.59028e-015 -1.27222e-014 -5.0395 -0.09 2.4971 -7.51459e-007 -1.19539e-006 1.09177e-006 -3.7921 -1.552 1.4806 1.52574e-006 -1.8171e-006 8.82987e-007 -1.4655 -1.808 0.9609 -7.51459e-007 -1.19539e-006 1.09177e-006 -4.9141 -1.269 0.3592 -7.51459e-007 -1.19539e-006 1.09177e-006 -3.1477 -1.685 0.8462 1.52574e-006 -1.8171e-006 8.82987e-007 -0.8055 -1.585 0.7955 -7.51459e-007 -1.19539e-006 1.09177e-006 8.367 -8.2066 0.5982 -2.79041 -1.97765 0.0960935 2.1923 -43.463 -0.4932 0.0137117 3.46733 0.46643 0.7333 -45.8593 -2.6451 4.76807 -1.53137 -0.328608 -8.367 -8.2066 0.5982 2.04999 -38.067 -2.84379 -2.1923 -43.463 -0.4931 -0.93413 77.2099 -2.46264 -0.7333 -45.8593 -2.6451 -4.73894 40.5729 -0.272489 
